<svg xmlns="http://www.w3.org/2000/svg" viewBox="0 0 160 200" width="160" height="200" role="img" aria-label="HR Specialist">
<defs><linearGradient id="bg" x1="0" y1="0" x2="1" y2="1"><stop offset="0" stop-color="#d4472c"/><stop offset="1" stop-color="#14151c"/></linearGradient>
<radialGradient id="glow" cx=".5" cy=".42" r=".55"><stop offset="0" stop-color="#ffffff" stop-opacity=".38"/><stop offset="1" stop-color="#ffffff" stop-opacity="0"/></radialGradient>
<pattern id="st" width="10" height="10" patternUnits="userSpaceOnUse" patternTransform="rotate(35)"><rect width="3" height="10" fill="#000" opacity=".10"/></pattern></defs>
<rect width="160" height="200" fill="url(#bg)"/><rect width="160" height="200" fill="url(#st)"/><rect width="160" height="200" fill="url(#glow)"/>
<g transform="translate(0 0.0) scale(1.0)"><path d="M14 200 Q16 140 52 128 L66 120 Q80 132 94 120 L108 128 Q144 140 146 200Z" fill="#0d0e13"/><rect x="68" y="108" width="24" height="22" fill="#0d0e13"/><circle cx="80" cy="84" r="30" fill="#0d0e13"/></g><path d="M52 128 L80 156 L108 128 L100 124 L80 142 L60 124Z" fill="#f1e8cf"/><path d="M100 122 H132 L142 132 V168 H100Z" fill="#f1e8cf" stroke="#0d0e13" stroke-width="2"/><path d="M108 140 H134 M108 150 H134 M108 160 H124" stroke="#0d0e13" stroke-width="2"/><path d="M12 14 l7 -8 l7 8 v6 l-7 -7 l-7 7z" fill="#c9a227" stroke="#0d0e13" stroke-width="1"/><path d="M25 14 l7 -8 l7 8 v6 l-7 -7 l-7 7z" fill="#c9a227" stroke="#0d0e13" stroke-width="1"/><path d="M38 14 l7 -8 l7 8 v6 l-7 -7 l-7 7z" fill="#c9a227" stroke="#0d0e13" stroke-width="1"/>
<rect x="2" y="2" width="156" height="196" rx="6" fill="none" stroke="#c9a227" stroke-width="3" opacity=".85"/></svg>
